<?xml version="1.0" standalone="no"?>
<!DOCTYPE svg PUBLIC "-//W3C//DTD SVG 20010904//EN"
 "http://www.w3.org/TR/2001/REC-SVG-20010904/DTD/svg10.dtd">
<svg version="1.0" xmlns="http://www.w3.org/2000/svg"
 width="350.000000pt" height="350.000000pt" viewBox="0 0 350.000000 350.000000"
 preserveAspectRatio="xMidYMid meet">
<metadata>
Created by potrace 1.14, written by Peter Selinger 2001-2017
</metadata>
<g transform="translate(0.000000,350.000000) scale(0.100000,-0.100000)"
fill="#000000" stroke="none">
<path d="M570 3485 c-33 -19 -21 -19 21 0 19 8 27 14 19 14 -8 0 -26 -6 -40
-14z"/>
<path d="M1375 3489 c-386 -40 -680 -116 -940 -244 -149 -73 -242 -132 -350
-225 -70 -60 -95 -93 -81 -107 3 -3 27 14 53 38 92 86 248 186 363 233 81 34
94 39 100 41 3 0 21 6 40 13 29 9 77 10 100 2 3 -2 8 -2 11 -2 4 1 5 -9 2 -21
-5 -18 -3 -20 8 -9 19 18 26 15 25 -10 -1 -17 4 -22 17 -20 19 3 50 -22 40
-32 -4 -3 -1 -6 5 -6 7 0 12 -8 13 -17 0 -11 3 -13 6 -6 3 10 10 10 24 2 11
-5 17 -14 15 -18 -7 -11 43 -33 57 -24 7 4 5 -2 -3 -12 -8 -10 -10 -16 -3 -12
7 4 14 -1 18 -14 6 -17 9 -19 16 -8 8 11 12 10 25 -6 8 -11 20 -19 25 -17 5 1
9 -2 9 -8 0 -5 10 -14 21 -21 15 -8 19 -8 15 0 -4 6 -2 11 3 11 6 0 11 -7 11
-15 0 -8 5 -15 11 -15 5 0 7 5 3 12 -4 7 -3 8 4 4 6 -4 8 -14 5 -24 -3 -9 -3
-14 2 -10 4 4 22 0 39 -9 17 -9 36 -18 41 -18 6 -1 16 -3 23 -3 6 -1 12 -10
12 -19 0 -14 2 -15 9 -4 5 8 11 9 15 3 3 -5 16 -7 30 -5 13 3 26 0 30 -5 3 -6
-3 -9 -16 -6 -13 2 -6 -2 15 -9 21 -7 42 -19 47 -27 8 -12 10 -12 10 4 0 15 3
16 15 6 8 -7 13 -16 10 -20 -3 -4 5 -10 17 -13 13 -4 26 -1 30 6 6 9 8 9 8 -2
0 -7 6 -11 14 -8 8 3 17 -2 21 -11 5 -13 8 -14 14 -3 6 10 10 10 16 2 5 -9 11
-9 23 1 12 10 14 10 8 1 -4 -8 -1 -13 9 -13 8 0 24 -5 34 -12 19 -11 18 -13
-5 -66 -32 -72 -30 -78 5 -18 28 48 68 85 55 51 -3 -8 -10 -12 -15 -9 -5 3 -6
-2 -3 -10 3 -8 -2 -29 -11 -46 -9 -18 -15 -34 -13 -36 3 -2 40 74 83 169 117
256 130 286 226 489 49 103 89 190 89 193 0 8 -465 3 -555 -6z"/>
<path d="M2406 3485 c4 -8 8 -15 10 -15 2 0 4 7 4 15 0 8 -4 15 -10 15 -5 0
-7 -7 -4 -15z"/>
<path d="M2470 3398 c-121 -399 -183 -594 -190 -598 -5 -3 -21 -39 -35 -80
-15 -41 -38 -97 -51 -124 -13 -28 -24 -64 -24 -81 0 -38 -11 -42 -190 -76
-244 -46 -612 -169 -623 -208 -3 -9 -8 -24 -12 -33 -6 -15 -1 -18 26 -19 26
-1 21 -3 -19 -9 -112 -17 -122 -20 -122 -41 0 -20 41 -43 50 -29 5 9 281 40
570 65 102 9 196 18 208 21 29 6 29 11 -34 -216 -81 -294 -82 -297 -113 -248
-12 19 -14 20 -23 5 -6 -13 -16 -15 -36 -11 -38 9 -85 34 -78 41 3 4 0 13 -8
22 -8 10 -20 75 -30 165 -9 83 -20 152 -24 155 -5 4 -11 14 -15 23 -3 9 -15
16 -26 15 -23 -1 -28 -13 -10 -19 6 -2 13 -15 15 -28 1 -14 10 -72 18 -130 18
-121 20 -162 7 -141 -7 11 -9 11 -14 0 -4 -11 -8 -12 -23 -1 -62 41 -155 67
-338 96 -89 14 -89 14 -65 -5 23 -19 22 -19 -29 1 -29 11 -56 19 -60 18 -13
-3 -72 14 -72 21 0 4 6 16 14 26 13 18 14 17 47 -7 38 -28 69 -41 69 -29 0 11
-99 111 -110 111 -5 0 -6 16 -3 35 4 27 2 36 -11 41 -10 4 -23 1 -29 -5 -9 -9
-8 -11 7 -5 16 6 17 4 11 -17 -4 -13 -21 -36 -36 -52 -26 -24 -34 -47 -30 -82
3 -29 -38 -7 -75 39 -34 43 -39 55 -31 73 13 30 2 53 -25 52 -18 -1 -19 -2 -5
-6 13 -3 16 -10 12 -21 -4 -10 -10 -25 -12 -35 -3 -10 -12 -16 -19 -13 -8 3
-18 0 -24 -7 -5 -7 -21 -25 -35 -42 -15 -16 -24 -36 -22 -45 5 -18 -21 -18
-70 0 -28 10 -33 17 -33 45 0 38 -22 52 -45 29 -22 -22 -19 -40 4 -20 12 11
21 14 26 7 3 -6 1 -11 -5 -11 -7 0 -10 -7 -6 -15 3 -8 0 -14 -7 -12 -7 1 -11
-6 -10 -16 0 -12 -4 -16 -12 -13 -8 3 -19 -2 -25 -10 -9 -10 -9 -14 -1 -14 8
0 9 -13 5 -41 -6 -35 -4 -41 15 -46 23 -6 29 -23 8 -23 -15 0 -87 71 -87 85 0
6 -10 21 -21 35 l-20 25 12 -25 c12 -25 12 -25 -9 -6 -12 10 -20 22 -17 26 2
4 -6 5 -18 3 -17 -3 -26 2 -35 21 -12 26 -36 34 -47 16 -3 -6 1 -7 9 -4 22 8
20 -12 -2 -26 -15 -10 -15 -11 5 -7 19 4 21 2 12 -20 -7 -18 -5 -34 6 -56 20
-41 18 -47 -5 -18 -11 13 -20 19 -20 14 0 -16 53 -59 112 -91 61 -32 64 -32
48 -2 -15 27 13 47 45 32 30 -14 32 -28 5 -42 -11 -6 -17 -16 -14 -22 4 -7 3
-8 -4 -4 -8 5 -12 0 -12 -13 0 -17 -7 -21 -37 -22 -21 0 -47 -4 -58 -9 -13 -5
2 -6 37 -4 34 2 58 0 58 -6 0 -6 -5 -10 -11 -10 -21 0 10 -27 102 -90 49 -34
89 -63 89 -65 0 -2 -19 -1 -42 2 -24 3 -40 2 -36 -2 4 -4 27 -9 51 -10 24 -1
61 -12 83 -23 l40 -20 112 33 c129 38 119 39 412 -35 388 -98 786 -220 925
-285 67 -31 136 -88 122 -101 -12 -12 -129 17 -150 37 -11 10 -27 19 -34 19
-7 0 -13 4 -13 9 0 5 -20 17 -45 26 -24 10 -43 21 -40 24 2 4 -5 7 -16 8 -10
1 -31 9 -46 17 -62 34 -111 54 -162 66 -30 7 -66 19 -80 26 -14 8 -33 14 -41
14 -9 0 -20 4 -25 8 -25 22 -241 55 -267 41 -25 -13 -19 -20 59 -67 74 -44
142 -102 121 -102 -20 0 -247 45 -377 75 -62 14 -116 24 -118 21 -3 -3 14 -10
37 -16 23 -6 58 -20 78 -30 55 -28 505 -156 1135 -321 36 -10 51 -29 23 -29
-8 0 -77 18 -153 39 -76 22 -287 80 -469 130 -182 50 -339 93 -350 97 -10 4
57 -32 150 -79 191 -97 212 -111 149 -101 -28 4 -48 2 -57 -5 -14 -12 -66 -9
-131 6 -11 3 -32 4 -47 4 -16 -1 -28 3 -28 8 0 8 -12 12 -92 27 -18 4 -38 11
-44 16 -8 6 -15 -1 -22 -22 -10 -28 -8 -34 11 -31 4 0 7 -6 7 -16 0 -9 3 -13
6 -10 4 3 19 -7 34 -23 15 -16 30 -27 32 -24 3 2 11 -2 18 -11 7 -8 20 -15 29
-15 9 0 27 -7 39 -16 12 -8 35 -18 49 -20 15 -3 30 -9 33 -13 5 -8 36 -21 46
-20 4 0 10 -4 13 -10 4 -5 49 -22 101 -37 52 -15 108 -33 124 -42 16 -8 66
-28 110 -44 l81 -29 -80 7 c-44 3 -93 8 -110 9 -16 2 -85 13 -152 25 -119 22
-233 22 -233 0 0 -12 -123 21 -144 39 -10 9 -20 15 -22 14 -6 -4 -20 0 -59 17
-16 7 -68 15 -115 17 -121 4 -183 13 -200 28 -10 9 -35 13 -70 11 -56 -2 -106
10 -133 33 -9 7 -21 10 -27 6 -5 -3 -10 1 -10 9 0 13 -12 16 -57 17 -32 0 -67
3 -78 5 -11 3 -58 9 -103 14 -52 5 -90 15 -101 24 -10 9 -29 16 -42 16 -14 0
-34 7 -45 15 -21 16 -17 18 46 16 19 0 29 2 22 5 -17 8 -5 24 19 24 11 0 17 5
14 10 -3 6 0 10 7 10 7 1 0 7 -17 15 -16 7 -23 14 -15 14 8 1 3 7 -12 15 -17
9 -72 17 -141 20 -110 5 -187 24 -187 46 0 6 5 10 10 10 6 0 5 8 -2 20 -7 11
-19 20 -26 20 -7 0 -15 7 -18 15 -9 22 -26 18 -22 -4 4 -27 155 -196 257 -289
135 -123 259 -219 237 -184 -2 4 13 6 35 4 21 -2 39 -8 39 -12 0 -5 19 -13 43
-19 l42 -10 -50 5 c-27 3 -58 10 -67 15 -22 12 -41 11 -33 -1 18 -29 323 -217
481 -297 361 -183 717 -302 1131 -378 273 -51 343 -55 880 -55 l503 0 0 604 0
604 -72 12 c-40 7 -107 18 -148 25 -41 6 -74 16 -74 21 1 5 5 39 9 76 6 63 5
69 -18 92 -13 13 -42 27 -65 31 -23 4 -42 10 -42 14 0 4 19 21 42 39 23 18 38
32 34 32 -4 0 -27 -16 -51 -36 -24 -20 -49 -33 -54 -30 -8 5 -95 23 -246 50
-11 2 -62 9 -113 16 -51 7 -95 17 -98 22 -3 5 1 20 10 33 20 30 20 41 1 25
-12 -10 -16 -9 -21 3 -7 18 -35 31 -43 20 -16 -21 -82 -63 -100 -63 -46 0 -11
26 74 55 19 7 19 8 -4 16 -14 6 -32 8 -40 6 -9 -3 -5 -5 9 -6 22 -2 20 -5 -20
-26 -46 -25 -130 -34 -130 -15 0 23 33 60 54 61 42 1 -15 16 -84 22 l-65 5 58
-11 c31 -5 57 -14 57 -19 0 -4 -4 -8 -9 -8 -5 0 -14 -13 -20 -28 l-12 -29 -67
15 c-37 8 -70 19 -73 24 -3 5 -9 9 -13 9 -27 -4 -38 1 -32 14 5 13 3 13 -17 0
-25 -16 -47 -12 -120 19 l-37 16 19 38 c11 20 26 60 34 87 9 28 48 127 87 220
39 94 73 186 75 205 2 19 13 62 24 95 10 33 38 128 61 210 23 83 57 200 76
260 18 61 48 162 66 225 l34 115 48 0 c35 0 50 4 53 15 3 10 2 11 -4 4 -11
-15 -83 -5 -83 11 0 7 7 32 15 56 23 64 65 215 65 233 0 9 -7 16 -15 16 -9 0
-24 -34 -45 -102z m-220 -739 c-10 -34 -20 -50 -20 -31 0 14 18 62 24 62 3 0
1 -14 -4 -31z m-76 -250 c-10 -35 -19 -58 -22 -51 -5 15 27 126 34 119 3 -3
-2 -33 -12 -68z m-97 -28 c4 -27 -12 -20 -20 9 -3 13 -1 20 5 18 6 -2 13 -14
15 -27z m-22 -29 c-3 -3 -11 0 -18 7 -9 10 -8 11 6 5 10 -3 15 -9 12 -12z m58
-66 c-20 -27 -39 -32 -178 -41 -49 -4 -164 -17 -255 -30 -91 -13 -190 -26
-220 -29 l-55 -5 60 14 c33 7 119 21 190 30 205 25 449 66 460 76 17 17 16 9
-2 -15z m-547 -113 c-3 -3 -29 -7 -58 -10 -35 -3 -50 -1 -43 6 6 5 28 11 50
13 41 3 60 0 51 -9z m-598 -213 c27 0 10 -29 -23 -40 -29 -10 -38 -9 -51 4
-14 14 -14 19 2 46 l18 30 21 -20 c12 -11 27 -20 33 -20z m-121 -26 c-3 -3
-12 -4 -19 -1 -8 3 -5 6 6 6 11 1 17 -2 13 -5z m258 -25 c28 -11 22 -13 -80
-24 -118 -14 -216 -37 -279 -67 -48 -22 -47 -22 -40 -3 3 8 21 24 40 36 40 24
41 28 14 57 -22 23 -14 27 28 15 16 -4 22 -11 19 -22 -4 -18 21 -20 103 -7 67
11 80 16 80 30 0 15 62 7 115 -15z m-565 -19 c0 -19 -18 -19 -23 -1 -3 14 -1
18 9 14 8 -3 14 -9 14 -13z m220 -9 c0 -11 -30 -23 -31 -13 0 4 -2 15 -4 24
-3 15 0 16 16 8 10 -6 19 -15 19 -19z m545 19 c3 -5 1 -10 -4 -10 -6 0 -11 5
-11 10 0 6 2 10 4 10 3 0 8 -4 11 -10z m51 -26 c18 -14 18 -14 -6 -3 -31 14
-36 19 -24 19 6 0 19 -7 30 -16z m108 -46 c23 -24 30 -34 16 -22 -14 11 -38
30 -54 42 -16 12 -23 22 -17 22 7 0 31 -19 55 -42z m-984 18 c-6 -8 -18 -12
-26 -9 -19 7 -7 23 18 23 17 0 18 -3 8 -14z m615 -46 c3 -5 -3 -10 -14 -10
-12 0 -21 5 -21 10 0 6 6 10 14 10 8 0 18 -4 21 -10z m-252 -20 c-5 -19 0 -20
128 -21 149 0 206 -11 126 -23 -26 -4 -51 -5 -56 -2 -5 3 -71 6 -147 7 -77 1
-134 3 -129 4 6 2 22 6 36 9 15 3 29 15 32 26 3 11 7 20 10 20 3 0 3 -9 0 -20z
m775 -36 c18 -3 35 -11 38 -15 7 -12 -9 -11 -43 2 -15 7 -38 11 -50 10 -13 0
-23 4 -23 9 0 10 7 10 78 -6z m-290 -1 c-10 -2 -26 -2 -35 0 -10 3 -2 5 17 5
19 0 27 -2 18 -5z m-628 -23 c0 -5 -12 -10 -26 -10 -14 0 -23 4 -19 10 3 6 15
10 26 10 10 0 19 -4 19 -10z m330 -11 c178 -12 446 -43 600 -69 63 -10 147
-21 185 -25 59 -5 150 -18 410 -60 21 -3 26 -2 14 5 -13 8 -274 60 -303 60 -6
0 -4 5 4 11 12 8 9 9 -10 5 -14 -3 -38 1 -54 9 -15 8 -31 13 -35 11 -4 -3 -59
4 -122 16 -62 11 -128 20 -146 21 -23 1 -29 4 -23 12 6 7 7 14 5 17 -3 3 18 1
46 -4 29 -5 60 -7 70 -5 10 3 34 1 54 -3 19 -4 33 -5 31 -1 -3 4 11 7 30 7 19
0 34 -4 34 -9 0 -4 -5 -5 -12 -1 -7 4 -8 3 -4 -4 4 -6 13 -9 20 -6 7 3 16 -3
20 -13 5 -12 9 -14 14 -6 8 12 17 11 135 -18 20 -6 37 -16 37 -24 0 -15 97
-40 128 -32 14 3 13 6 -8 15 -32 14 -27 14 67 1 100 -14 184 -40 158 -49 -14
-5 -7 -10 29 -19 63 -16 55 -22 -12 -10 -30 6 -66 9 -80 7 -23 -3 -21 -6 18
-16 25 -7 56 -18 70 -25 24 -11 22 -12 -23 -15 -51 -3 -182 15 -337 47 -52 11
-96 19 -98 17 -2 -2 27 -20 65 -40 37 -20 82 -47 98 -61 29 -25 30 -25 5 -20
-14 3 -133 28 -265 56 -302 63 -656 119 -986 154 -48 5 -61 12 -94 45 l-38 39
79 -5 c43 -2 144 -9 224 -15z m1037 -65 c-3 -3 -12 -4 -19 -1 -8 3 -5 6 6 6
11 1 17 -2 13 -5z m523 -34 c0 -23 -28 -37 -62 -33 -41 6 -49 18 -19 28 10 3
27 15 37 26 17 19 19 19 31 3 7 -10 13 -21 13 -24z m-1515 -10 c3 -5 1 -10 -4
-10 -6 0 -11 5 -11 10 0 6 2 10 4 10 3 0 8 -4 11 -10z m180 -20 l20 -9 -20 1
c-11 0 -31 4 -45 8 l-25 8 25 0 c14 0 34 -3 45 -8z m1172 -6 c-3 -3 -12 -4
-19 -1 -8 3 -5 6 6 6 11 1 17 -2 13 -5z m88 -14 c27 -7 27 -8 5 -8 -14 0 -38
4 -55 8 -27 7 -27 8 -5 8 14 0 39 -4 55 -8z m-465 -130 c11 -7 5 -9 -21 -10
-61 0 -129 12 -122 22 6 12 119 2 143 -12z m1387 -336 c-3 -3 -12 -4 -19 -1
-8 3 -5 6 6 6 11 1 17 -2 13 -5z m-257 -74 c23 -17 185 -60 223 -60 6 0 8 -2
5 -5 -5 -5 -148 12 -182 22 -12 3 -16 1 -11 -6 11 -19 -3 -60 -28 -76 -24 -15
-71 -10 -60 8 3 5 1 7 -5 3 -6 -3 -13 -2 -17 4 -4 6 -9 8 -13 6 -4 -2 -8 11
-9 29 -1 21 4 35 13 39 8 3 14 12 14 21 0 8 5 15 11 15 5 0 7 5 4 10 -11 18
26 11 55 -10z m-120 -92 c0 -19 -2 -20 -10 -8 -13 19 -13 30 0 30 6 0 10 -10
10 -22z m-2700 -40 c0 -13 -23 -5 -28 10 -2 7 2 10 12 6 9 -3 16 -11 16 -16z
m58 -8 c1 -4 15 -5 30 -3 23 3 24 2 7 -6 -11 -5 -14 -10 -7 -10 7 -1 21 4 31
11 15 9 22 7 40 -9 l21 -19 -54 2 c-57 2 -84 12 -107 40 -13 15 -12 16 11 9
14 -4 26 -11 28 -15z m2787 -40 c17 -19 17 -19 -11 -11 -53 16 -85 34 -73 42
16 9 63 -8 84 -31z m-2610 10 c3 -5 1 -10 -4 -10 -6 0 -11 5 -11 10 0 6 2 10
4 10 3 0 8 -4 11 -10z m-30 -46 c44 -6 67 -12 51 -13 -52 -2 -155 21 -168 37
-12 14 -10 14 12 2 13 -7 61 -19 105 -26z m190 -75 c4 -6 13 -8 21 -5 17 6
164 -15 164 -23 0 -10 -82 -11 -94 -2 -6 4 -24 11 -39 13 -22 4 -27 2 -22 -9
3 -11 1 -13 -10 -9 -20 7 -19 -4 3 -20 15 -12 13 -13 -18 -14 -26 0 -31 3 -20
10 12 8 11 10 -7 10 -12 0 -25 5 -28 10 -4 7 2 9 18 5 32 -8 47 13 22 32 -11
7 -14 13 -8 13 7 0 15 -5 18 -11z m85 -39 c0 -5 -7 -7 -15 -4 -8 4 -15 8 -15
10 0 2 7 4 15 4 8 0 15 -4 15 -10z m22 -41 c2 -7 29 -12 61 -14 31 -1 60 -5
64 -9 5 -4 -5 -6 -22 -5 -17 2 -29 -1 -28 -7 2 -11 -95 -3 -177 15 l-45 10 60
-1 c76 -1 88 2 50 12 l-30 8 32 1 c17 0 33 -4 35 -10z m-37 -49 c3 -6 -1 -7
-9 -4 -18 7 -21 14 -7 14 6 0 13 -4 16 -10z m320 -10 c-3 -5 -11 -10 -16 -10
-6 0 -7 5 -4 10 3 6 11 10 16 10 6 0 7 -4 4 -10z m13 -21 c42 -1 40 -3 -23
-11 -38 -5 -82 -10 -97 -11 -44 -5 -45 -17 -2 -19 33 -1 31 -2 -16 -7 -30 -3
-56 -3 -58 2 -2 4 -10 7 -17 7 -8 0 -17 5 -20 10 -4 7 2 9 18 5 15 -4 30 -1
39 8 9 10 34 15 64 15 31 0 50 5 53 14 3 10 5 10 9 1 2 -8 23 -14 50 -14z
m149 -25 c-3 -3 -12 -4 -19 -1 -8 3 -5 6 6 6 11 1 17 -2 13 -5z"/>
<path d="M1870 1660 c0 -5 5 -10 11 -10 5 0 7 5 4 10 -3 6 -8 10 -11 10 -2 0
-4 -4 -4 -10z"/>
<path d="M1998 1623 c7 -3 16 -2 19 1 4 3 -2 6 -13 5 -11 0 -14 -3 -6 -6z"/>
<path d="M2297 1593 c-4 -3 -7 -11 -7 -17 0 -6 5 -5 12 2 6 6 9 14 7 17 -3 3
-9 2 -12 -2z"/>
<path d="M2840 3343 c-145 -437 -419 -1090 -624 -1484 -36 -69 -64 -128 -61
-131 3 -3 23 12 45 34 23 21 66 55 97 76 54 36 56 39 99 152 24 63 60 144 80
180 59 107 238 476 302 620 92 208 262 666 262 705 0 3 -33 5 -74 5 l-74 0
-52 -157z"/>
<path d="M3116 3468 c-3 -18 -10 -67 -16 -108 -34 -234 -89 -455 -176 -719
-79 -238 -78 -235 -56 -188 16 31 21 35 31 24 7 -9 30 -14 65 -14 33 1 61 -5
72 -14 10 -7 15 -9 11 -3 -4 7 4 11 22 10 16 -1 27 -4 24 -8 -2 -5 1 -8 7 -8
6 0 13 7 16 15 9 22 21 18 29 -7 4 -14 8 -18 12 -10 2 6 14 12 24 12 11 0 17
-4 14 -10 -9 -14 9 -12 23 2 8 8 15 9 20 3 9 -13 35 -18 27 -5 -9 14 8 13 23
-2 9 -9 12 -9 12 2 0 10 5 9 19 -4 11 -10 25 -15 31 -11 7 4 32 7 56 7 27 -1
42 3 39 8 -3 6 -1 10 4 10 6 0 11 -4 11 -9 0 -5 9 -7 20 -4 20 5 20 14 20 534
l0 529 -190 0 -189 0 -5 -32z m218 -1024 c3 -8 2 -12 -4 -9 -6 3 -10 10 -10
16 0 14 7 11 14 -7z m84 1 c3 -3 -4 -4 -16 -2 -12 2 -24 6 -28 10 -4 3 4 4 16
2 12 -2 25 -7 28 -10z"/>
<path d="M2341 3464 c0 -11 3 -14 6 -6 3 7 2 16 -1 19 -3 4 -6 -2 -5 -13z"/>
<path d="M470 3445 c-14 -8 -20 -14 -15 -14 6 0 21 6 35 14 14 8 21 14 15 14
-5 0 -21 -6 -35 -14z"/>
<path d="M2391 3428 c0 -9 -4 -25 -7 -35 -5 -14 -4 -15 5 -7 7 7 11 22 8 35
-2 13 -5 16 -6 7z"/>
<path d="M328 3379 c-54 -27 -98 -51 -98 -54 0 -5 199 92 209 101 15 14 -27
-4 -111 -47z"/>
<path d="M2431 3374 c0 -11 3 -14 6 -6 3 7 2 16 -1 19 -3 4 -6 -2 -5 -13z"/>
<path d="M2370 3361 c0 -5 7 -11 14 -14 10 -4 13 -1 9 9 -6 15 -23 19 -23 5z"/>
<path d="M2421 3334 c0 -11 3 -14 6 -6 3 7 2 16 -1 19 -3 4 -6 -2 -5 -13z"/>
<path d="M2526 3335 c4 -8 8 -15 10 -15 2 0 4 7 4 15 0 8 -4 15 -10 15 -5 0
-7 -7 -4 -15z"/>
<path d="M157 3284 c-31 -19 -57 -38 -57 -41 0 -3 12 3 27 12 14 10 41 26 60
37 28 17 40 28 30 28 -1 0 -28 -16 -60 -36z"/>
<path d="M2357 3269 c7 -7 15 -10 18 -7 3 3 -2 9 -12 12 -14 6 -15 5 -6 -5z"/>
<path d="M55 3214 l-30 -26 33 22 c17 12 32 23 32 26 0 7 -4 5 -35 -22z"/>
<path d="M643 3225 c0 -8 4 -12 9 -9 5 3 6 10 3 15 -9 13 -12 11 -12 -6z"/>
<path d="M2360 3175 c-19 -10 -27 -10 -33 -2 -6 8 -7 6 -3 -5 3 -10 2 -18 -2
-18 -5 0 -18 -9 -30 -21 -22 -20 -24 -20 -121 -5 -54 9 -104 16 -111 16 -30 0
1 -11 76 -26 43 -9 83 -20 88 -24 5 -5 -9 -4 -30 1 -22 4 -48 8 -59 8 -11 -1
3 -6 30 -13 l50 -11 -38 -24 c-21 -13 -36 -25 -34 -27 5 -5 91 39 95 49 2 4 8
7 13 7 6 0 8 -4 4 -9 -3 -5 3 -12 13 -16 14 -4 18 -13 16 -33 -4 -27 -4 -27 4
-2 6 16 15 24 28 23 15 -1 25 13 46 70 15 39 26 72 25 73 -1 1 -13 -4 -27 -11z
m-5 -51 c-8 -20 -15 -38 -15 -40 0 -8 -17 -3 -31 9 -8 6 -13 11 -11 10 3 -1
15 11 29 28 34 40 46 37 28 -7z"/>
<path d="M2465 3054 c-55 -28 -59 -38 -25 -62 16 -13 30 -18 30 -13 0 5 3 18
6 28 4 13 3 14 -3 5 -10 -13 -43 -7 -43 8 0 11 37 23 49 16 8 -5 25 23 18 30
-1 2 -16 -4 -32 -12z"/>
<path d="M2401 2894 c0 -11 3 -14 6 -6 3 7 2 16 -1 19 -3 4 -6 -2 -5 -13z"/>
<path d="M2307 2669 c-3 -14 -9 -44 -11 -65 l-5 -39 15 45 c8 25 13 54 11 65
-2 17 -4 16 -10 -6z"/>
<path d="M2270 2536 c-12 -34 -13 -46 -1 -46 11 0 26 59 17 67 -3 3 -10 -6
-16 -21z"/>
<path d="M865 2100 c-3 -5 1 -10 10 -10 9 0 13 5 10 10 -3 6 -8 10 -10 10 -2
0 -7 -4 -10 -10z"/>
<path d="M1645 2088 c-3 -7 -1 -26 4 -43 8 -29 9 -28 9 13 0 42 -5 53 -13 30z"/>
<path d="M1662 1990 c0 -14 2 -19 5 -12 2 6 2 18 0 25 -3 6 -5 1 -5 -13z"/>
<path d="M1672 1930 c0 -14 2 -19 5 -12 2 6 2 18 0 25 -3 6 -5 1 -5 -13z"/>
<path d="M1681 1874 c0 -11 3 -14 6 -6 3 7 2 16 -1 19 -3 4 -6 -2 -5 -13z"/>
<path d="M2534 1768 l-19 -23 23 19 c12 11 22 21 22 23 0 8 -8 2 -26 -19z"/>
<path d="M0 1764 c0 -6 13 -17 28 -23 22 -9 35 -9 61 2 l33 14 -61 10 c-46 7
-61 7 -61 -3z"/>
<path d="M472 1735 c-13 -13 -34 -25 -45 -27 -12 -2 -21 -9 -19 -16 1 -6 -3
-12 -9 -12 -6 0 -17 -7 -25 -15 -9 -8 -12 -15 -8 -15 3 0 1 -7 -6 -15 -10 -12
-10 -15 1 -15 11 0 11 -2 -1 -10 -25 -16 -1 -28 134 -65 131 -35 205 -47 136
-20 l-35 13 30 2 c27 1 65 20 65 33 0 6 -185 97 -199 97 -5 0 -12 -10 -14 -22
-4 -22 -4 -22 -6 2 -1 14 -5 32 -11 40 -6 11 -1 22 23 42 18 15 28 27 22 27
-5 -1 -21 -12 -33 -24z m31 -155 c6 -23 -3 -26 -21 -8 -16 16 -15 28 2 28 7 0
16 -9 19 -20z m118 -2 c22 -6 39 -15 39 -20 0 -5 -8 -7 -17 -4 -10 3 -35 8
-56 12 -27 5 -35 9 -25 15 17 11 14 11 59 -3z"/>
<path d="M148 1713 c6 -2 18 -2 25 0 6 3 1 5 -13 5 -14 0 -19 -2 -12 -5z"/>
<path d="M190 1709 c0 -5 5 -7 10 -4 6 3 10 8 10 11 0 2 -4 4 -10 4 -5 0 -10
-5 -10 -11z"/>
<path d="M2188 1713 c6 -2 18 -2 25 0 6 3 1 5 -13 5 -14 0 -19 -2 -12 -5z"/>
<path d="M368 1703 c7 -3 16 -2 19 1 4 3 -2 6 -13 5 -11 0 -14 -3 -6 -6z"/>
<path d="M2428 1673 c6 -2 18 -2 25 0 6 3 1 5 -13 5 -14 0 -19 -2 -12 -5z"/>
<path d="M358 1537 c7 -8 30 -17 51 -21 34 -5 83 -35 135 -82 11 -10 38 -24
60 -31 21 -8 52 -23 68 -34 21 -15 32 -18 45 -10 10 6 14 11 8 11 -5 1 -2 5 9
9 14 5 -3 14 -68 36 -94 31 -108 45 -25 25 62 -15 138 -16 165 -3 10 6 26 8
34 6 8 -3 6 1 -5 9 -12 10 -58 18 -120 22 -55 4 -104 11 -109 16 -6 6 -33 10
-61 10 -27 1 -63 7 -80 15 l-30 14 35 -5 c29 -3 31 -3 10 4 -14 5 -49 12 -79
16 -47 6 -53 5 -43 -7z"/>
<path d="M115 1501 c-11 -5 -41 -11 -68 -15 -26 -4 -47 -13 -47 -19 0 -14 51
-47 73 -47 8 0 20 -7 27 -15 7 -8 31 -20 54 -25 48 -13 54 -15 167 -69 108
-52 145 -63 157 -48 9 11 -8 38 -23 37 -26 -1 -29 1 -15 10 12 8 11 10 -7 10
-13 0 -22 3 -22 8 5 28 -2 32 -28 15 -17 -10 -23 -11 -15 -3 19 22 14 28 -19
24 -25 -3 -30 -1 -25 12 5 12 1 14 -16 8 -16 -5 -20 -3 -15 9 7 19 -21 31 -49
21 -14 -4 -15 -3 -6 4 11 7 11 10 -1 15 -8 3 -23 4 -34 3 -10 -2 -12 -1 -5 1
16 6 16 6 -17 42 -31 33 -35 34 -66 22z"/>
<path d="M470 1417 c8 -9 178 -77 192 -77 20 1 -18 20 -92 48 -75 28 -107 37
-100 29z"/>
<path d="M5 1329 c-10 -15 3 -25 16 -12 7 7 7 13 1 17 -6 3 -14 1 -17 -5z"/>
<path d="M43 1315 c-18 -20 -17 -22 20 -18 53 7 65 14 42 23 -30 13 -48 11
-62 -5z"/>
<path d="M1315 1050 c3 -5 1 -10 -5 -10 -6 0 -8 -4 -5 -10 7 -12 55 -13 55 -2
0 5 -12 14 -26 20 -14 7 -23 8 -19 2z"/>
<path d="M0 486 l0 -486 838 0 837 1 -145 48 c-570 188 -1057 469 -1429 826
l-101 97 0 -486z"/>
</g>
</svg>
