<svg width="359" height="94" viewBox="0 0 359 94" fill="none" xmlns="http://www.w3.org/2000/svg">
<path d="M93.6831 60.859C110.489 60.859 124.113 47.2353 124.113 30.4295C124.113 13.6238 110.489 0 93.6831 0C76.8773 0 63.2535 13.6238 63.2535 30.4295C63.2535 47.2353 76.8773 60.859 93.6831 60.859Z" fill="#FB4D00"/>
<path fill-rule="evenodd" clip-rule="evenodd" d="M152.991 10.3747C160.255 10.2236 164.835 12.0573 169.748 13.7286C168.13 17.0597 166.512 20.3912 164.891 23.7231C162.626 22.4877 148.095 18.1161 147.769 23.0889C147.788 25.3035 150.836 25.8016 153.356 26.4358C159.789 28.0553 165.932 29.5004 167.077 36.4927C169.152 49.1593 152.525 54.1273 140.243 52.1548C136.479 51.5502 131.93 50.6925 129.315 48.5385C131.055 45.2477 132.796 41.9565 134.536 38.665C140.55 42.7215 153.725 45.3127 153.477 40.0796C153.326 38.2009 149.615 37.5225 147.164 36.7991C143.262 35.6478 138.623 34.5502 136.358 31.7225C129.824 23.5689 138.101 14.4654 144.371 11.983C147.118 10.9105 150.042 10.3649 152.991 10.3747ZM7.77165 11.6872C12.345 11.7132 16.9186 11.7393 21.4925 11.7653C23.718 18.897 25.9442 26.0293 28.1709 33.1622L28.4138 33.0395C33.5125 25.8849 38.6121 18.7294 43.7124 11.5729C48.3263 11.5585 52.9401 11.5441 57.5537 11.5297C54.9638 25.0443 52.3736 38.5603 49.783 52.0777C45.3314 52.0921 40.8794 52.1065 36.4268 52.1209C37.5598 45.9923 38.693 39.8633 39.8265 33.7342C39.7859 33.8156 39.7453 33.8965 39.7049 33.9779L26.5913 52.1515L22.5847 52.1645C20.6823 46.208 18.7799 40.2511 16.8776 34.2936H16.7562C15.623 40.2599 14.4898 46.2268 13.3565 52.1945C8.90487 52.2089 4.45269 52.2233 0 52.2377C2.59091 38.7214 5.18146 25.2046 7.77165 11.6872ZM217.346 11.0219C216.739 14.3904 216.132 17.7593 215.525 21.1286C211.438 21.1412 207.35 21.1541 203.26 21.1675C201.319 31.3136 199.377 41.4607 197.432 51.6087L184.077 51.6519V51.2865C186.018 41.262 187.961 31.2365 189.905 21.21L178.126 21.2474V20.8825C178.774 17.6358 179.421 14.3886 180.069 11.1408L217.346 11.0219ZM309.141 20.8313L289.228 20.8948C288.945 22.5988 288.661 24.3033 288.377 26.0083L305.984 25.9521L304.041 36.0591C298.133 36.0777 292.224 36.0963 286.313 36.115C285.989 37.82 285.666 39.5248 285.343 41.2294C292.061 41.2082 298.779 41.1867 305.498 41.1646V41.2866C304.851 44.6142 304.203 47.9424 303.555 51.2714L270.042 51.3778V51.2561C272.674 37.7818 275.305 24.3061 277.935 10.829L311.082 10.7239C310.437 14.0926 309.79 17.4617 309.141 20.8313ZM321.162 10.6926L358.56 10.574C357.912 13.9426 357.264 17.3111 356.616 20.6797L344.353 20.8406C342.41 30.9462 340.467 41.0529 338.525 51.1604L325.168 51.2036C327.152 41.0979 329.136 30.9912 331.119 20.8835V20.762L319.219 20.7993C319.867 17.4309 320.514 14.062 321.162 10.6926ZM227.667 11.111C238.015 10.9599 254.046 9.4989 260.085 13.8072C263.694 16.3809 264.467 22.7211 261.543 26.7021C260.185 28.5513 258.215 29.2751 256.322 30.6126V30.7342C263.342 32.8909 262.843 43.3339 257.779 47.2796C250.15 53.2256 232.891 51.5467 219.531 51.5387C222.243 38.0643 224.955 24.5884 227.667 11.111ZM237.745 26.1687C242.398 26.3041 248.907 26.8513 247.7 22.5287C246.944 20.8721 241.068 20.4832 238.594 21.1768L237.745 26.1687ZM235.681 36.2759C235.357 37.98 235.033 39.6848 234.709 41.3901C239.464 41.498 246.531 42.6641 245.879 37.7037C245.633 36.9494 245.255 36.5698 244.787 36.3886C243.392 35.6355 237.773 36.2461 235.681 36.2759Z" fill="white"/>
<path fill-rule="evenodd" clip-rule="evenodd" d="M93.981 7.88458C96.0855 12.7452 98.1902 17.6062 100.295 22.4674L116.323 23.7552C112.276 27.2965 108.229 30.8385 104.181 34.3811C105.395 39.5285 106.609 44.6763 107.824 49.8244L93.8599 41.7153C89.3274 44.4472 84.7944 47.1795 80.2608 49.9121C81.4748 44.7569 82.6889 39.6013 83.9032 34.4454C79.8563 30.9295 75.8089 27.4132 71.761 23.8967C77.1029 23.4339 82.4455 22.9708 87.7887 22.5074C89.8529 17.6336 91.917 12.7593 93.981 7.88458Z" fill="white"/>
<path d="M344.995 93.9058C341.517 93.9058 338.68 93.1583 336.483 91.6633C334.317 90.1378 333.233 87.9868 333.233 85.2103C333.233 84.9357 333.264 84.5238 333.325 83.9746H341.471C341.38 85.134 341.654 86.0493 342.295 86.7206C342.936 87.3918 343.912 87.7274 345.224 87.7274C346.414 87.7274 347.345 87.4681 348.016 86.9494C348.718 86.4307 349.068 85.6985 349.068 84.7526C349.068 83.7763 348.626 82.983 347.741 82.3728C346.887 81.7626 345.544 81.0761 343.714 80.3133C341.944 79.581 340.495 78.8946 339.366 78.2538C338.268 77.5826 337.307 76.6825 336.483 75.5536C335.659 74.4247 335.247 73.006 335.247 71.2974C335.217 69.1921 335.735 67.3615 336.803 65.8054C337.871 64.2494 339.351 63.0595 341.242 62.2357C343.134 61.4119 345.3 61 347.741 61C349.938 61 351.891 61.3509 353.599 62.0526C355.308 62.7239 356.635 63.7155 357.581 65.0274C358.527 66.3089 359 67.8344 359 69.604C359 70.0617 358.984 70.3973 358.954 70.6109H350.625C350.655 70.4888 350.67 70.3058 350.67 70.0617C350.67 69.2074 350.365 68.5209 349.755 68.0022C349.175 67.453 348.367 67.1784 347.329 67.1784C346.231 67.1784 345.331 67.453 344.629 68.0022C343.958 68.5209 343.622 69.2379 343.622 70.1532C343.622 71.0685 344.049 71.8466 344.904 72.4873C345.758 73.0975 347.085 73.8145 348.885 74.6383C350.686 75.4621 352.15 76.2249 353.279 76.9266C354.438 77.6284 355.43 78.5742 356.254 79.7641C357.078 80.9235 357.489 82.3575 357.489 84.0661C357.489 85.9578 356.986 87.6511 355.979 89.1462C354.972 90.6412 353.523 91.8159 351.631 92.6702C349.74 93.4939 347.528 93.9058 344.995 93.9058Z" fill="white"/>
<path d="M321.182 61.4576C324.507 61.4576 327.04 62.2204 328.779 63.7459C330.518 65.241 331.387 67.1937 331.387 69.604C331.387 70.3058 331.326 70.9617 331.204 71.572C330.838 73.7077 329.908 75.6146 328.413 77.2927C326.918 78.9708 324.919 80.1607 322.417 80.8625L327.589 93.5855H318.756L314.225 81.4574H312.349L310.198 93.5855H302.372L308.047 61.4576H321.182ZM323.195 71.8923C323.256 71.4041 323.287 71.0838 323.287 70.9312C323.287 69.9549 322.966 69.2074 322.326 68.6887C321.716 68.1395 320.8 67.8649 319.58 67.8649H314.729L313.31 75.9197H318.161C319.595 75.9197 320.724 75.5689 321.548 74.8671C322.402 74.1654 322.951 73.1738 323.195 71.8923Z" fill="white"/>
<path d="M290.014 67.6361L288.87 74.3179H299.35L298.298 80.2217H287.817L286.536 87.407H298.389L297.291 93.5855H277.611L283.286 61.4576H302.966L301.867 67.6361H290.014Z" fill="white"/>
<path d="M271.939 93.5855H264.113L254.548 73.7687L251.024 93.5855H243.198L248.873 61.4576H256.699L266.264 81.3659L269.788 61.4576H277.614L271.939 93.5855Z" fill="white"/>
<path d="M244.945 61.4576L243.892 67.6361H235.334L230.757 93.5855H222.931L227.508 67.6361H218.995L220.094 61.4576H244.945Z" fill="white"/>
<path d="M205.113 61.4576C208.438 61.4576 210.971 62.2204 212.71 63.7459C214.449 65.241 215.318 67.1937 215.318 69.604C215.318 70.3058 215.257 70.9617 215.135 71.572C214.769 73.7077 213.839 75.6146 212.344 77.2927C210.849 78.9708 208.85 80.1607 206.348 80.8625L211.52 93.5855H202.687L198.156 81.4574H196.28L194.129 93.5855H186.303L191.978 61.4576H205.113ZM207.126 71.8923C207.187 71.4041 207.218 71.0838 207.218 70.9312C207.218 69.9549 206.897 69.2074 206.257 68.6887C205.647 68.1395 204.731 67.8649 203.511 67.8649H198.66L197.241 75.9197H202.092C203.526 75.9197 204.655 75.5689 205.479 74.8671C206.333 74.1654 206.882 73.1738 207.126 71.8923Z" fill="white"/>
<path d="M173.566 87.9105H161.575L158.646 93.5855H150.454L167.753 61.4576H176.815L182.764 93.5855H174.481L173.566 87.9105ZM172.65 81.9609L170.774 70.0617L164.641 81.9609H172.65Z" fill="white"/>
<path d="M152.329 71.8008C152.024 73.6619 151.307 75.3705 150.178 76.9266C149.049 78.4521 147.509 79.6878 145.556 80.6336C143.634 81.5795 141.361 82.0524 138.737 82.0524H133.885L131.826 93.5855H124L129.675 61.4576H142.352C145.708 61.4576 148.241 62.2052 149.949 63.7002C151.658 65.1647 152.512 67.1632 152.512 69.6955C152.512 70.4583 152.451 71.1601 152.329 71.8008ZM139.194 75.9197C142.123 75.9197 143.847 74.5468 144.366 71.8008C144.427 71.3126 144.457 70.9617 144.457 70.7482C144.457 69.7718 144.137 69.0243 143.496 68.5056C142.886 67.9564 141.94 67.6818 140.659 67.6818H136.403L134.984 75.9197H139.194Z" fill="white"/>
</svg>
